<svg width="84" height="84" viewBox="0 0 84 84" fill="none" xmlns="http://www.w3.org/2000/svg">
<rect width="84" height="84" fill="#1E1E1E"/>
<g id="Transak on-ramping">
<path d="M-10775 -8667C-10775 -8668.1 -10774.1 -8669 -10773 -8669H9902C9903.1 -8669 9904 -8668.1 9904 -8667V6904C9904 6905.1 9903.1 6906 9902 6906H-10773C-10774.1 6906 -10775 6905.1 -10775 6904V-8667Z" fill="#404040"/>
<g id="Processing">
<rect x="-172" y="-170" width="428" height="926" rx="33" fill="white"/>
<g id="Frame 483094">
<g id="Frame 483079">
<g id="Signs">
<circle id="Ellipse 7" cx="42" cy="42" r="42" fill="#279FFE" fill-opacity="0.5"/>
<circle id="Ellipse 6" cx="42" cy="41.9999" r="33.6" fill="#279FFE"/>
<g id="Icon/Solid/clock">
<path id="Icon" fill-rule="evenodd" clip-rule="evenodd" d="M42 55.8238C49.6348 55.8238 55.824 49.6346 55.824 41.9998C55.824 34.365 49.6348 28.1758 42 28.1758C34.3652 28.1758 28.176 34.365 28.176 41.9998C28.176 49.6346 34.3652 55.8238 42 55.8238ZM42.48 35.0878C42.48 34.8227 42.2651 34.6078 42 34.6078C41.7349 34.6078 41.52 34.8227 41.52 35.0878V41.9998C41.52 42.1271 41.5705 42.2492 41.6605 42.3392L46.5481 47.2267C46.7355 47.4142 47.0394 47.4142 47.2269 47.2267C47.4143 47.0393 47.4143 46.7354 47.2269 46.5479L42.48 41.801V35.0878Z" fill="white"/>
</g>
</g>
</g>
</g>
</g>
<path d="M-10773 -8668H9902V-8670H-10773V-8668ZM9903 -8667V6904H9905V-8667H9903ZM9902 6905H-10773V6907H9902V6905ZM-10774 6904V-8667H-10776V6904H-10774ZM-10773 6905C-10773.6 6905 -10774 6904.55 -10774 6904H-10776C-10776 6905.66 -10774.7 6907 -10773 6907V6905ZM9903 6904C9903 6904.55 9902.55 6905 9902 6905V6907C9903.66 6907 9905 6905.66 9905 6904H9903ZM9902 -8668C9902.55 -8668 9903 -8667.55 9903 -8667H9905C9905 -8668.66 9903.66 -8670 9902 -8670V-8668ZM-10773 -8670C-10774.7 -8670 -10776 -8668.66 -10776 -8667H-10774C-10774 -8667.55 -10773.6 -8668 -10773 -8668V-8670Z" fill="white" fill-opacity="0.1"/>
</g>
</svg>
