<svg width="19" height="20" viewBox="0 0 19 20" fill="none" xmlns="http://www.w3.org/2000/svg">
<path d="M18.4161 10.637C18.4294 10.4404 18.4382 10.2424 18.4382 10.0458C18.4387 9.04413 18.2711 8.04949 17.9425 7.10343C18.0359 7.03878 18.1062 6.94594 18.1432 6.83843C18.1803 6.73093 18.182 6.61439 18.1482 6.50582C18.1145 6.39724 18.0469 6.30232 17.9555 6.2349C17.8641 6.16747 17.7535 6.13107 17.64 6.131C17.6083 6.13144 17.5767 6.13491 17.5456 6.14135C17.1435 5.31145 16.6165 4.54836 15.9831 3.87876C16.0244 3.79764 16.0441 3.70725 16.0404 3.61627C16.0367 3.5253 16.0097 3.43681 15.962 3.35932C15.9142 3.28183 15.8474 3.21795 15.7679 3.17381C15.6884 3.12968 15.5989 3.10678 15.508 3.10733C15.4155 3.10727 15.3248 3.13229 15.2454 3.17974C14.19 2.2846 12.9422 1.64626 11.5995 1.3147C11.6005 1.18898 11.5572 1.06694 11.4772 0.97011C11.3971 0.873276 11.2855 0.807869 11.162 0.785426C11.0385 0.762983 10.911 0.784946 10.8021 0.847442C10.6932 0.909937 10.6098 1.00895 10.5667 1.12701C10.2006 1.08093 9.83205 1.05724 9.46307 1.05607C9.15059 1.05636 8.83835 1.07314 8.52763 1.10632C8.47973 0.999072 8.39773 0.910724 8.29442 0.855061C8.19112 0.799399 8.07232 0.779554 7.95658 0.798624C7.84083 0.817693 7.73464 0.874604 7.65458 0.960476C7.57452 1.04635 7.52508 1.15635 7.514 1.27332C6.73796 1.44531 5.98859 1.72119 5.28607 2.09352C5.22259 1.99852 5.13031 1.92646 5.02285 1.88795C4.91539 1.84944 4.79842 1.84653 4.68918 1.87963C4.57994 1.91274 4.4842 1.98012 4.41608 2.07184C4.34796 2.16356 4.31105 2.27478 4.3108 2.38909C4.31156 2.47821 4.33492 2.56568 4.37867 2.64328C3.61156 3.17579 2.93122 3.82384 2.36173 4.56448C2.28146 4.53425 2.19505 4.52405 2.10997 4.53475C2.02488 4.54546 1.94368 4.57675 1.87337 4.62593C1.80307 4.67511 1.74577 4.74069 1.70644 4.81701C1.6671 4.89334 1.64691 4.97811 1.64761 5.064C1.64741 5.19268 1.69471 5.31689 1.7804 5.41277C1.40714 6.03077 1.10989 6.69174 0.89513 7.38126C0.783504 7.38923 0.677263 7.4324 0.591649 7.50458C0.506034 7.57677 0.445446 7.67426 0.418574 7.78307C0.391702 7.89188 0.399927 8.00642 0.44207 8.11026C0.484213 8.2141 0.558109 8.3019 0.653156 8.36107C0.402059 9.66797 0.44541 11.0145 0.780045 12.3025C0.71804 12.3518 0.667933 12.4145 0.633448 12.4859C0.598963 12.5573 0.580988 12.6355 0.580859 12.7148C0.582665 12.8518 0.636981 12.9828 0.732563 13.0807C0.828144 13.1786 0.957669 13.236 1.09432 13.2409C1.40666 14.0575 1.8361 14.8242 2.3691 15.5168C2.269 15.611 2.20919 15.7403 2.20225 15.8777C2.1953 16.0151 2.24175 16.1498 2.33185 16.2537C2.42195 16.3575 2.54869 16.4223 2.68548 16.4345C2.82227 16.4468 2.95848 16.4055 3.06552 16.3193C3.83579 17.1088 4.74456 17.7495 5.74641 18.2094C5.74641 18.2094 5.74641 18.2198 5.74641 18.2257C5.74559 18.3343 5.77809 18.4406 5.83951 18.5301C5.90092 18.6197 5.9883 18.6882 6.08984 18.7264C6.19137 18.7646 6.30217 18.7706 6.40725 18.7437C6.51233 18.7168 6.60664 18.6583 6.67742 18.576C6.95653 18.6683 7.24019 18.7462 7.52728 18.8095C7.53836 18.9264 7.58779 19.0364 7.66786 19.1223C7.74792 19.2082 7.85411 19.2651 7.96986 19.2841C8.0856 19.3032 8.2044 19.2834 8.3077 19.2277C8.41101 19.172 8.49301 19.0837 8.54091 18.9764C9.94122 19.1268 11.3571 18.9419 12.6722 18.437C12.7694 18.5307 12.8987 18.5836 13.0337 18.5848C13.1753 18.5848 13.3112 18.5285 13.4113 18.4281C13.5115 18.3278 13.5678 18.1917 13.5678 18.0498C13.5678 18.0498 13.5678 18.0498 13.5678 18.0395C14.6011 17.5075 15.522 16.7804 16.2796 15.8981C16.3226 15.9093 16.3666 15.9152 16.411 15.9158C16.5522 15.9158 16.6877 15.8596 16.7876 15.7596C16.8875 15.6595 16.9436 15.5238 16.9436 15.3823C16.9426 15.2923 16.9193 15.2039 16.8757 15.1252C17.5975 14.0759 18.087 12.8843 18.3113 11.6301C18.4173 11.6054 18.5131 11.5487 18.5858 11.4677C18.6584 11.3866 18.7044 11.2851 18.7175 11.1769C18.7305 11.0688 18.71 10.9592 18.6587 10.8631C18.6075 10.7671 18.5279 10.6891 18.4309 10.6399L18.4161 10.637ZM15.5272 4.16842C15.6285 4.16487 15.7267 4.13258 15.8105 4.07532C16.4168 4.71884 16.9213 5.45145 17.3066 6.24775C17.2494 6.29367 17.2024 6.35103 17.1686 6.41618C17.1348 6.48132 17.115 6.55282 17.1103 6.62608C16.3593 6.68076 15.5685 6.7251 14.844 6.75909C14.7599 6.75909 14.6685 6.76795 14.574 6.77387C14.5282 6.64744 14.4473 6.53671 14.3409 6.45465L15.5272 4.16842ZM17.6592 11.2458L17.0823 11.2931C16.1778 11.3537 14.9945 11.4217 14.0517 11.4601C14.0242 11.3853 13.9802 11.3176 13.9229 11.2621C13.8657 11.2066 13.7968 11.1646 13.7212 11.1394C13.7212 11.1187 13.7212 11.0966 13.7212 11.0759C13.8201 9.94976 13.9307 8.82364 14.0783 7.699C14.1658 7.67667 14.2484 7.63807 14.3217 7.5852L17.7079 10.8365C17.6607 10.9166 17.6357 11.0079 17.6356 11.101C17.6365 11.1502 17.6444 11.1989 17.6592 11.2458ZM15.8695 15.4503C15.3088 15.6247 14.6419 15.8272 14.1476 16.0015C13.5117 16.2306 12.7164 16.538 12.1026 16.7405L11.6025 16.0119C11.3074 15.5685 10.9961 15.1163 10.6936 14.6626C10.7782 14.578 10.8433 14.4757 10.884 14.3631C10.9248 14.2504 10.9404 14.1302 10.9297 14.0109C10.9172 13.881 10.8742 13.7559 10.8043 13.6459L10.9046 13.5705L10.9828 13.5173C11.6615 13.0473 12.4981 12.4931 13.196 12.0601L13.2166 12.0483C13.3114 12.1289 13.4316 12.1734 13.556 12.1739C13.6271 12.1743 13.6974 12.1597 13.7625 12.1311L13.8038 12.1872C14.394 12.966 14.9842 13.77 15.5331 14.571C15.6629 14.7621 15.7913 14.9537 15.9182 15.1459C15.8838 15.2179 15.8656 15.2966 15.865 15.3764C15.8649 15.4006 15.8663 15.4248 15.8695 15.4488V15.4503ZM6.14036 5.73346L8.79617 4.41522C8.84136 4.53792 8.9196 4.64568 9.02221 4.72655C9.12483 4.80742 9.2478 4.85823 9.37749 4.87335C9.33913 5.77189 9.28011 7.18618 9.2388 8.18225C8.97307 8.21555 8.72965 8.34801 8.55714 8.55319C7.73974 7.87191 6.80578 7.09751 5.99429 6.43544C6.11984 6.2778 6.17959 6.0776 6.16101 5.87681C6.1585 5.8285 6.15159 5.78051 6.14036 5.73346ZM10.7143 13.2838C10.6464 13.3237 10.5859 13.3577 10.5313 13.3872C10.3864 13.301 10.2182 13.2622 10.0503 13.2764C10.0296 13.1981 10.0075 13.0991 9.98243 12.9808C9.85554 12.1946 9.67553 11.0862 9.53979 10.3C9.77506 10.2622 9.99074 10.1461 10.1521 9.97045C11.1082 10.4995 12.0864 11.0301 13.0204 11.5665C13.0151 11.5938 13.0121 11.6215 13.0115 11.6493C13.0124 11.6994 13.0203 11.7492 13.0351 11.7971L13.016 11.8089C12.591 12.1045 12.1189 12.4104 11.688 12.6838L10.788 13.2439L10.7143 13.2838ZM10.3262 9.72808C10.4039 9.57731 10.4444 9.41007 10.4442 9.24039C10.4436 9.14553 10.4307 9.05115 10.4059 8.9596C11.2174 8.55172 12.0525 8.12757 12.83 7.74924L13.376 7.48471C13.447 7.56639 13.5359 7.63061 13.6356 7.6724C13.6194 8.60935 13.5737 9.54187 13.5117 10.4803L13.4704 11.0581V11.1217C13.3679 11.1354 13.2716 11.1785 13.193 11.2458C12.2753 10.7774 11.2572 10.2217 10.3277 9.72808H10.3262ZM13.2122 7.16402C12.3358 7.62363 11.2557 8.15713 10.369 8.60048L10.2672 8.65221C10.1733 8.50999 10.0467 8.39241 9.89807 8.30935C9.74942 8.22629 9.58304 8.18017 9.4129 8.17487C9.43799 7.18471 9.4734 5.78075 9.49405 4.87927C9.60566 4.87536 9.71477 4.84508 9.81247 4.79089C9.91016 4.7367 9.99368 4.66013 10.0562 4.56744C11.1289 5.26794 12.2074 5.99652 13.252 6.74283C13.2158 6.82942 13.1973 6.92237 13.1974 7.01623C13.1982 7.06589 13.2037 7.11537 13.2137 7.16402H13.2122ZM9.72275 13.0192C9.73982 13.1342 9.7482 13.2503 9.74783 13.3665C9.67168 13.4047 9.60197 13.4545 9.54127 13.5143C9.43951 13.4611 9.34098 13.4019 9.24618 13.337C8.58518 12.9557 7.87696 12.536 7.23514 12.1547C6.61102 11.7749 5.71395 11.234 4.98803 10.8025C5.01343 10.7298 5.02688 10.6534 5.02787 10.5764C5.02787 10.5616 5.02787 10.5468 5.02787 10.532C5.9633 10.3 7.31777 9.97932 8.42435 9.71035C8.50894 9.88151 8.63796 10.0267 8.79788 10.1307C8.9578 10.2347 9.14271 10.2937 9.33323 10.3015C9.44684 11.098 9.60914 12.2197 9.72275 13.0192ZM8.22664 8.58571L8.43173 8.766C8.35405 8.91573 8.31356 9.082 8.31369 9.25074C8.31409 9.30671 8.31903 9.36256 8.32845 9.41773L4.96295 10.2808C4.89523 10.1333 4.77982 10.013 4.6354 9.93941C4.75196 9.39409 4.85524 8.84581 4.95557 8.29605C5.05442 7.77437 5.15475 7.24826 5.27132 6.72805C5.38401 6.74655 5.49941 6.73942 5.60898 6.70718C5.71855 6.67495 5.81948 6.61844 5.90428 6.54184C6.66857 7.22165 7.71466 8.14235 8.22664 8.57536V8.58571ZM4.83311 11.067C6.22446 11.8931 7.72794 12.7562 9.09126 13.5927C9.21372 13.6843 9.29634 13.7523 9.35536 13.804C9.29508 13.9542 9.28127 14.119 9.31574 14.2771C9.35021 14.4353 9.43136 14.5794 9.54865 14.6907C9.52976 14.732 9.5135 14.7744 9.49996 14.8178C9.31553 15.3306 9.12519 15.8523 8.93191 16.3784C7.9109 15.7636 6.90464 15.1148 5.90428 14.469C5.882 14.4522 5.85831 14.4374 5.83346 14.4247C5.82018 14.3434 5.80985 14.2636 5.79658 14.1838C5.49263 13.2971 5.13705 12.3247 4.81688 11.4409L4.72392 11.1572C4.76548 11.1281 4.8036 11.0944 4.83753 11.0567L4.83311 11.067ZM9.62832 15.2316L9.76701 14.9198C9.78029 14.8961 9.79062 14.8754 9.80242 14.8518C9.92381 14.9035 10.0562 14.9239 10.1875 14.9109C10.2783 14.9027 10.3671 14.8792 10.4501 14.8414C10.788 15.273 11.1289 15.7089 11.4505 16.1331L11.9079 16.736L9.10454 16.4257C9.28159 16.0089 9.45864 15.607 9.63275 15.2212L9.62832 15.2316ZM15.3147 4.14773L14.1255 6.35711C14.0543 6.33229 13.9795 6.31931 13.9042 6.31869C13.72 6.3178 13.5427 6.38884 13.4099 6.51672C12.4804 5.92558 11.5494 5.29897 10.6479 4.66646L10.161 4.32951C10.1724 4.28107 10.1783 4.23149 10.1787 4.18172C10.1794 4.17238 10.1794 4.16299 10.1787 4.15364H10.2554C11.7943 4.03246 13.4409 3.91128 15.0093 3.82556C15.0358 3.89626 15.0773 3.96042 15.1307 4.01371C15.1842 4.067 15.2484 4.10817 15.3191 4.13443L15.3147 4.14773ZM11.0669 1.85707C11.1635 1.85696 11.2582 1.83049 11.3408 1.78049C11.4235 1.7305 11.491 1.65887 11.5361 1.57332C12.8306 1.88912 14.0349 2.50007 15.055 3.35856C15.0064 3.43734 14.9795 3.52757 14.9768 3.62014C13.3538 3.70586 11.6792 3.76792 10.0783 3.8093C10.0368 3.73942 9.98341 3.67739 9.92046 3.62605C10.099 3.33935 10.2834 3.03491 10.4487 2.74969C10.6139 2.46446 10.7895 2.14968 10.9488 1.84377C10.9877 1.85192 11.0272 1.85638 11.0669 1.85707ZM8.57632 1.36938C8.87286 1.33841 9.17083 1.32312 9.46897 1.32357C9.82756 1.32454 10.1858 1.34724 10.5416 1.39155C10.5571 1.51733 10.6173 1.63331 10.7113 1.71815C10.5165 1.99599 10.3277 2.27825 10.1447 2.562C9.99718 2.78663 9.85997 3.00536 9.72422 3.2359L9.57668 3.4694C9.53914 3.46296 9.50115 3.4595 9.46307 3.45905C9.43044 3.45974 9.3979 3.4627 9.36569 3.46792C9.19896 3.20782 9.0706 2.92555 8.90682 2.65511C8.7342 2.3418 8.5719 2.02554 8.41402 1.70485C8.50642 1.61605 8.564 1.49704 8.57632 1.36938ZM5.38345 2.39057C5.38345 2.37579 5.38345 2.36101 5.38345 2.34624C6.06896 1.97892 6.80107 1.70648 7.55974 1.53638C7.61074 1.66035 7.7072 1.76006 7.8293 1.81503C7.95141 1.87 8.08989 1.87605 8.21631 1.83194C8.38009 2.14229 8.54091 2.4556 8.69288 2.77333C8.8124 3.04969 8.95847 3.30979 9.0706 3.58467C8.97403 3.64992 8.89498 3.73798 8.84043 3.84108C8.78588 3.94417 8.7575 4.05913 8.7578 4.17581C8.75898 4.21097 8.76243 4.24602 8.76813 4.28074C8.74453 4.29108 8.71944 4.29847 8.69436 4.31029L6.01789 5.48223C5.94098 5.37674 5.83909 5.29206 5.72139 5.23582C5.60368 5.17959 5.47386 5.15355 5.34361 5.16006C5.34361 5.12754 5.33181 5.09503 5.32443 5.064C5.17689 4.3502 5.05442 3.63196 4.94672 2.91225C5.06866 2.88961 5.17894 2.82516 5.25862 2.72997C5.33831 2.63479 5.38244 2.51479 5.38345 2.39057ZM4.5631 2.83393C4.64689 2.8876 4.74398 2.91678 4.84344 2.91816C4.90245 3.34969 4.94967 3.78122 4.99983 4.21423C5.02787 4.5098 5.06033 4.80537 5.08541 5.10094C5.08541 5.13789 5.08541 5.17779 5.09426 5.21621C4.90211 5.29235 4.74743 5.44091 4.66343 5.63001L2.71731 5.15267C2.72259 5.1219 2.72555 5.09078 2.72616 5.05956C2.72563 4.9303 2.67787 4.80572 2.5919 4.70931C3.14815 3.98749 3.81317 3.35678 4.5631 2.83984V2.83393ZM2.00319 5.55908C2.06174 5.58098 2.12365 5.59248 2.18615 5.59307C2.28291 5.59298 2.37779 5.56635 2.4605 5.51607C2.54322 5.46579 2.6106 5.39377 2.65534 5.30784L4.59851 5.89898C4.59556 5.93883 4.59556 5.97884 4.59851 6.01869C4.61228 6.15861 4.66319 6.2923 4.74595 6.40586C4.82872 6.51943 4.94032 6.60873 5.06918 6.66451C4.83753 7.73447 4.53802 8.79113 4.29752 9.85961C4.11476 9.86433 3.94088 9.9395 3.81209 10.0695C2.99027 9.49902 2.13008 8.88719 1.33039 8.26354C1.4248 8.16612 1.47771 8.03575 1.47793 7.89999C1.47786 7.79818 1.44863 7.69854 1.39371 7.61288C1.33878 7.52722 1.26048 7.45915 1.16809 7.41673C1.37272 6.76684 1.65302 6.14333 2.00319 5.55908ZM1.03087 12.1857C0.72173 10.9596 0.681961 9.68093 0.914311 8.43792H0.946771C1.04665 8.43773 1.14441 8.40903 1.22858 8.35516C1.67515 8.67438 2.11779 9.00049 2.55649 9.3335C2.86486 9.56995 3.32077 9.92464 3.70586 10.232C3.65198 10.3271 3.62135 10.4335 3.61648 10.5427C3.6116 10.6519 3.63263 10.7606 3.67783 10.8601L3.44028 11.0301C2.80731 11.4734 2.16844 11.9168 1.51482 12.3409C1.46509 12.2882 1.40517 12.2463 1.33871 12.2175C1.27224 12.1888 1.20063 12.174 1.12825 12.1739C1.09546 12.1743 1.0628 12.1783 1.03087 12.1857ZM2.98879 15.4547C2.90637 15.4069 2.81254 15.3824 2.71731 15.3838C2.67759 15.3837 2.63798 15.3881 2.59928 15.3971C2.07739 14.728 1.6568 13.9856 1.35104 13.1936C1.43989 13.1493 1.5146 13.081 1.56674 12.9964C1.61888 12.9118 1.64638 12.8142 1.64613 12.7148C1.64567 12.6319 1.62543 12.5503 1.58712 12.4769C1.95598 12.2256 2.3273 11.9793 2.70108 11.738C3.04634 11.5192 3.43881 11.2813 3.79291 11.0611C3.85877 11.1325 3.93862 11.1896 4.02746 11.2287C4.11631 11.2679 4.21226 11.2883 4.30932 11.2887C4.33094 11.2901 4.35263 11.2901 4.37424 11.2887C4.7372 12.2729 5.11197 13.3207 5.49116 14.2872C5.49187 14.2931 5.49187 14.2991 5.49116 14.305L2.98879 15.4547ZM5.81576 17.9538C4.84322 17.502 3.96236 16.8743 3.21749 16.102C3.24055 16.0416 3.25255 15.9775 3.2529 15.9129C3.25292 15.7889 3.209 15.669 3.12896 15.5744L5.55903 14.605C5.73166 15.5464 5.98838 16.674 6.17429 17.7085C6.10089 17.7224 6.03117 17.7514 5.96947 17.7937C5.90778 17.8359 5.85545 17.8904 5.81576 17.9538ZM8.04959 18.2257C7.94576 18.2253 7.84412 18.2555 7.75729 18.3126C7.67046 18.3696 7.60228 18.4509 7.56121 18.5464C7.30006 18.4873 7.04481 18.4193 6.79398 18.338C6.80163 18.3011 6.80559 18.2634 6.80578 18.2257C6.80584 18.0871 6.75191 17.954 6.65546 17.8546C6.55902 17.7553 6.42768 17.6975 6.28938 17.6937C6.2702 17.5695 6.25101 17.4469 6.23331 17.3227L6.09462 16.2809C6.02527 15.7414 5.9574 15.2006 5.8792 14.6641L6.01199 14.7498C6.96661 15.3483 7.89762 16.0134 8.84338 16.6178C8.63829 17.169 8.43025 17.7203 8.21926 18.2553C8.16419 18.2362 8.10638 18.2262 8.04811 18.2257H8.04959ZM12.5173 18.2094C11.5426 18.5736 10.5107 18.7598 9.47045 18.7592C9.1723 18.7597 8.87434 18.7444 8.5778 18.7134C8.57037 18.6256 8.54109 18.541 8.49263 18.4674C8.44418 18.3939 8.37809 18.3336 8.30041 18.2922C8.51878 17.7646 8.74305 17.2237 8.98502 16.6873L12.0835 16.9415L12.2502 17.1602C12.3786 17.336 12.5099 17.5104 12.6397 17.6848C12.5737 17.7529 12.5279 17.838 12.5073 17.9306C12.4867 18.0232 12.4922 18.1198 12.5232 18.2094H12.5173ZM13.4807 17.7779C13.4338 17.6977 13.3668 17.6311 13.2863 17.5847C13.2058 17.5383 13.1147 17.5137 13.0219 17.5134C12.9109 17.5137 12.8028 17.5494 12.7135 17.6154C12.5895 17.4395 12.4671 17.2636 12.3431 17.0892L12.2207 16.9119C12.9097 16.7493 13.5781 16.5247 14.2494 16.3119L15.3029 15.9749C15.536 15.8981 15.7677 15.8183 15.9978 15.7385C16.0079 15.7505 16.0187 15.7619 16.0303 15.7725C15.3126 16.5948 14.4473 17.2751 13.4792 17.7779H13.4807ZM16.6795 14.9271C16.5908 14.8701 16.487 14.8413 16.3817 14.8445C16.2763 14.8476 16.1744 14.8826 16.0893 14.9449C15.3619 14.0035 14.6685 13.0237 13.9957 12.0513L13.9543 11.9936C14.0162 11.9234 14.0589 11.8384 14.0783 11.7468C15.0152 11.6375 16.1896 11.5163 17.0941 11.435L17.7197 11.3862C17.7898 11.4999 17.8998 11.5832 18.0281 11.6197C17.8127 12.8043 17.3529 13.9308 16.678 14.9271H16.6795ZM18.1549 10.5764C18.0285 10.5806 17.9076 10.6299 17.8141 10.7153L14.4929 7.42116C14.5494 7.34008 14.5881 7.2479 14.6065 7.15072C14.6994 7.14185 14.7894 7.13298 14.8721 7.12116C15.6098 7.03988 16.4021 6.95416 17.159 6.88766C17.2015 6.97953 17.2694 7.0573 17.3547 7.11177C17.4399 7.16624 17.5389 7.19514 17.64 7.19505C17.6577 7.19505 17.6754 7.19505 17.6931 7.19505C18.0104 8.11243 18.1725 9.07644 18.1727 10.0473C18.1727 10.2217 18.1653 10.399 18.1549 10.5764Z" fill="url(#paint0_linear_491_5848)"/>
<defs>
<linearGradient id="paint0_linear_491_5848" x1="0.409707" y1="10.0414" x2="18.7053" y2="10.0414" gradientUnits="userSpaceOnUse">
<stop stop-color="#24A1FF"/>
<stop offset="1" stop-color="#9045E0"/>
</linearGradient>
</defs>
</svg>
